<svg xmlns="http://www.w3.org/2000/svg" viewBox="0 0 135.07 188.27"><defs><style>.cls-1{fill:#3d3342;}.cls-2{fill:#4c4051;}.cls-3{fill:#ffd1ab;}.cls-4{fill:#594a5f;}.cls-5{fill:#ffe1bd;}.cls-6{fill:#f9b253;}.cls-7{fill:#e59a41;}.cls-8{fill:#2c1e56;}.cls-9{fill:#82ccd8;}.cls-10{fill:#97deef;}.cls-11{fill:#75c1c9;}.cls-12{fill:#a7e8f2;}.cls-13{fill:#f7a60f;}.cls-14{fill:none;stroke:#fff;stroke-miterlimit:10;stroke-width:0.52px;}.cls-15{fill:#bdecf4;}.cls-16{fill:#fefefe;}</style></defs><g id="Layer_2" data-name="Layer 2"><g id="OBJECTS"><path class="cls-1" d="M105.81,163.37c-.67-5.81-3.64-9.76-9-12.29-4.36-2.05-9.27-2.53-14-3.14-10.65-1.37-20.81-2.73-31.56-2.31-8.59.34-13.89,7.67-17.91,14.9-2.54,4.56-1.83,6.7,1.36,10.52a38.74,38.74,0,0,0,10.5,8.78c7.9,4.48,20,3.38,28.73,2.41,8.21-.92,15.45-1.06,22.78-4.89C101.36,174.89,106.46,169,105.81,163.37Z"/><path class="cls-2" d="M84.57,177.86a5.7,5.7,0,0,1,4.29-1.12c1.88.14,7.06,1.88,9.59,2.1s5.23-.07,6.46,2.24c2.09,3.92.68,7.12-3.52,7.19-2.28,0-4-1.64-7.61-1.66s-8.81-1.72-10.14-4.36"/><path class="cls-3" d="M79.84,175.66A27.54,27.54,0,0,0,84.4,177c1.85.29,6.06.25,7.82,1.63s.8,4.89-.58,5.58c-2.22,1.11-3.83.25-7.53-1.34a23.87,23.87,0,0,0-8.22-1.6"/><path class="cls-2" d="M93.38,179.23s-1.32-.93-1.88-.13a12.27,12.27,0,0,0-1,4.93c.34,1,2.44.89,2.44.89l2.15-4.36Z"/><path class="cls-2" d="M25.81,169.79c-3.6-1.75-7.21-3.85-8.63-8s.2-11.11,4.65-15c5.42-4.69,11-2.23,15,.41,8.29,5.4,13.11,10.95,23,16.43,2.95,1.63,19.45,10.29,19.45,10.29.32,1.14-1.6,9.21-3,9.2C60.48,183,38.65,176,25.81,169.79Z"/><path class="cls-2" d="M46.92,176.85a5.8,5.8,0,0,0-4.39-1.15c-1.92.14-7.23,1.93-9.83,2.15s-5.21-.07-6.67,1.84c-2.77,3.61.56,7.42,4.87,7.5,2.34,0,2.88-1.37,6.59-1.38s9-1.77,10.38-4.47"/><path class="cls-3" d="M51.77,174.58A27,27,0,0,1,47.09,176c-1.89.3-6.21.26-8,1.67s-.82,5,.59,5.72c2.28,1.13,3.94.26,7.72-1.38a24.58,24.58,0,0,1,8.42-1.63"/><path class="cls-2" d="M37.89,178.24s1.36-1,1.93-.13a12.79,12.79,0,0,1,1,5.06c-.35,1.06-2.5.91-2.5.91l-2.2-4.48Z"/><path class="cls-4" d="M100.91,173.28c4.25-1.61,8.61-3.57,11.12-7.58s2.41-10.7-1.45-14.49c-4.7-4.62-11.21-2.36-16.17.11-10.15,5-21.43,11.06-31.94,15.33-3.55,1.44-15.34,7.06-15.34,7.06-.61,1.09,1.09,9.26,2.6,8.89"/><path class="cls-5" d="M98.84,68.22c.28.77,2.35-3.42,3.74-2.64.2.1,1.19,1.59,1.41,1.77.45.36,1.39.06,1.86,1.29,1.07,2.75,1,8.18-3.46,10.51-.06.14-4.13,17.67-6.62,26.35L88.87,99c1.89-4.77,5.83-13.15,8.61-20.75a6.57,6.57,0,0,0,.27-4.88,31.38,31.38,0,0,1-1.84-7.23c0-.74,1.65-7,2.38-6.34.43.4.41,2.69-.07,5.24A5.22,5.22,0,0,0,98.84,68.22Z"/><path class="cls-6" d="M32.31,115.94c-3,5.47-6.5,10.87-7.21,17-.26,2.28,0,4.84,1.63,6.46s6.51,1.75,8.79,1.87c3.19-9.95,4-19.82,7.2-29.77l4.74-14.77c1.19-3.71,4.48-9.81,4.08-13.59C47,83.25,43.05,93.66,41.38,97,38.29,103.31,35.63,109.79,32.31,115.94Z"/><path class="cls-6" d="M82.65,147.14a44.32,44.32,0,0,1-6.48,3.38,35.61,35.61,0,0,1-10.13,2,84,84,0,0,1-26.57-2.2c-3.69-.91-5.4-2.72-5.48-6a15.08,15.08,0,0,1,.29-3c1-5.41.08-10.42,2.35-15.42,2.76-6,3.44-13.28,5.34-19.64,1.76-5.9,3.54-11.82,5.51-17.66a12.57,12.57,0,0,1,5.43-7.09c3.33-1.86,7.17-1.08,10.82-1.66s9-1.75,13.33,2.63c1.92,2-.69,1.46-.06,3.84,2.06,7.86,3.66,15.82,5,23.83C82.6,114,85.4,145.51,82.65,147.14Z"/><path class="cls-7" d="M54.26,146.78,34,145.08a24.13,24.13,0,0,1,.24-3.75s11.15.85,16,.42C61.05,140.82,54.26,146.78,54.26,146.78Z"/><path class="cls-6" d="M86.6,97.26A116.73,116.73,0,0,1,93,85.65c.71-1.14,2.17-4.53,3.46-5,1.47-.49,4.94,1.13,6.32,1.66a216.05,216.05,0,0,1-8.17,28,9.55,9.55,0,0,1-2,3.69c-2.1,2-5.68,1.74-8.12.12s-4-4.22-5.5-6.74C76.31,103,73.32,98.32,72,93.3c-.8-3.11-3.49-8.34-.62-11s5.44-.43,7.23,2.07c1.48,2,2.84,4.19,4.16,6.35C83.3,91.49,87,96.49,86.6,97.26Z"/><path class="cls-8" d="M75.48,51.53c2.87,4.66.67,11.19,3.57,15.83,1.15,1.86,3.07,3.3,3.66,5.41A4.8,4.8,0,0,1,76,78.35a5.84,5.84,0,0,0-1.08-.5c-1.38-.36-2.58.88-3.74,1.72a5.78,5.78,0,0,1-5,1c-2.14-.65-3.51-2.76-4.28-4.86-2.14-5.89-.91-12.43.76-18.47.83-3,2.09-6.37,5-7.53"/><path class="cls-5" d="M64.63,73s0,5.44.88,5.77a21.64,21.64,0,0,0,3.54,1L69.41,91,54.34,89.12,43.86,83.65s10.64-3.84,10.7-4.92-.78-7.07-.78-7.07"/><path class="cls-5" d="M74.9,50.45s1.14,10.49-.51,16c-1.22,4.12-6.57,8.07-11.13,8.14C50.7,75,48,58,48,57.16s18.3-8.48,18.3-8.48Z"/><path class="cls-6" d="M81.32,102.16S52.65,117,50.16,116.36,25.1,133,25.1,133s2.33-42.91,16.43-49.53c7.18-3.36,3.56-3.52,9.94-3.57l2.82-.21c3.18,3.7,9.75,9.2,12.43,6.57,2-2,.25-5.41-.33-7.19,4.06.54,8.33,1.45,10.67,3.44C83.61,88.09,81.32,102.16,81.32,102.16Z"/><path class="cls-7" d="M46.12,97.27S38.21,128.32,39.29,129s16.36,2.83,16.36,2.83l.18-.86L41.33,128S47.08,103.91,46.12,97.27Z"/><path class="cls-8" d="M42.18,82.56l-.83-.45a6.93,6.93,0,0,1-3.46-3.31c-.94-2.33-1.45-5.93-.29-8.25.78-1.57,2.31-2.63,3.34-4a12.18,12.18,0,0,0,1.84-6.92,44.92,44.92,0,0,1,.3-7.25c.76-4.08,1.81-8,4.86-10.66,4.89-4.31,14.85-7.06,20.42-2.55,1,.83,1.23,1.5,2.57,1.59a9.92,9.92,0,0,1,4.61,1.22c1.82,1,4,2.38,3.84,4.74a8.38,8.38,0,0,1-3.28,5,4.08,4.08,0,0,1-1.91.49c-2.13.1-3.93-1.24-6-1a4,4,0,0,0-2.57,1.52c-.73.95-.59,2.24-1.45,3.13-1.37,1.43-3.55,1.37-5.2,2.32a1.81,1.81,0,0,0-.7.61,1.83,1.83,0,0,0-.16.9l0,2.64c-.84-.34-1-1.52-1.66-2.09A1.89,1.89,0,0,0,54,60.5a4.06,4.06,0,0,0-1.09,2.32A6.65,6.65,0,0,0,53.49,66c.6,1.78,2.17,3.35,3.38,2.13.94,1.3,0,3.53,0,5,0,1.18.09,3.53,1.22,4.28s2.64.1,2.75,2c.1,1.69-1.55,3-3.22,3.3a12.37,12.37,0,0,1-5-.73,7.8,7.8,0,0,0-5-.11,14.49,14.49,0,0,1-2.75,1.33A4.43,4.43,0,0,1,42.18,82.56Z"/><path class="cls-7" d="M73.69,93.19s4.53,8,4.54,10.55-1.49,7.61-1.49,7.61l1.22-.08s2.05-5,2.16-6.5a10.53,10.53,0,0,0-1.59-6.1c-1.51-2.74-4.31-6.76-5.23-7.18S73.69,93.19,73.69,93.19Z"/><polygon class="cls-9" points="31.8 145.08 96.93 144.82 51.69 154.88 31.8 145.08"/><polygon class="cls-10" points="51.69 156.53 104.39 152.46 113.73 111.32 60.72 115.79 51.69 156.53"/><polygon class="cls-11" points="51.69 156.53 31.8 147.54 31.8 145.08 52.16 154.39 51.69 156.53"/><polygon class="cls-11" points="60.72 115.79 59.35 114.9 50.83 153.76 52.16 154.39 60.72 115.79"/><polygon class="cls-11" points="59.35 114.9 112.05 110.26 113.73 111.32 60.72 115.79 59.35 114.9"/><path class="cls-12" d="M88.77,133.29c.26,2-1.63,3.81-4.24,4.17s-4.93-1-5.19-2.9,1.63-3.82,4.24-4.17S88.51,131.34,88.77,133.29Z"/><path class="cls-13" d="M125.16,21.77a10.27,10.27,0,0,0-19.45-6.58,10.17,10.17,0,0,0,0,6.65,19.82,19.82,0,0,1,.83,10.51l-.43,2,7.23,2.41.57-1.22a22.69,22.69,0,0,1,7.51-8.73A10.19,10.19,0,0,0,125.16,21.77Z"/><path class="cls-14" d="M108.35,34s6.77-14.84,5.7-17.1-3.61-1.12-3.8,1.09-1.9,9,7.91,4.64c3-1.32,1.63-5.52-.69-5.35s-5.86,17.81-5.86,17.81"/><path class="cls-2" d="M108.27,39.94h0a4.26,4.26,0,0,1-2.69-5.39l.42-1.26a.79.79,0,0,1,1-.49l6.6,2.2a.78.78,0,0,1,.49,1l-.42,1.26A4.26,4.26,0,0,1,108.27,39.94Z"/><path class="cls-13" d="M106.56,10s-5.16-3.64-4.12-4.93S106.56,10,106.56,10Z"/><path class="cls-13" d="M112.55,6s-3.86-5-2.49-5.92S112.55,6,112.55,6Z"/><path class="cls-13" d="M128.81,17.45s6.32.2,6.26-1.46S128.81,17.45,128.81,17.45Z"/><path class="cls-13" d="M126.44,10.64S132.53,9,132,7.4,126.44,10.64,126.44,10.64Z"/><path class="cls-13" d="M119.14,6.49s.4-6.3,2-6.09S119.14,6.49,119.14,6.49Z"/><polyline class="cls-15" points="26.8 60.17 35.43 64.51 31.11 53.92"/><ellipse class="cls-15" cx="18.25" cy="46.62" rx="18.25" ry="17.23"/><path class="cls-16" d="M13.78,41V53.28a1.29,1.29,0,0,0,1.94,1.11l10.67-6.15a1.29,1.29,0,0,0,0-2.24L15.72,39.84A1.3,1.3,0,0,0,13.78,41Z"/></g></g></svg>